<svg version="1" xmlns="http://www.w3.org/2000/svg" width="716" height="716" viewBox="0 0 537.000000 537.000000"><path d="M76.6 157.2C42 217.3 13.7 266.9 13.7 267.5c0 .6 28.3 50.3 62.9 110.3l62.9 109.1h254l62.9-109.1c34.6-60 62.9-109.6 62.9-110.3 0-.6-28.3-50.3-62.9-110.3L393.5 48.1h-254L76.6 157.2zm212.2-89.4c10.3 6 41.2 23.8 68.7 39.7 27.5 15.9 59.9 34.6 72 41.6l22 12.7.3 106.4.2 106.4-25.7 14.9c-14.2 8.2-46.9 27.1-72.8 42-25.8 15-55.7 32.2-66.2 38.3L268 480.9l-19.3-11.1c-10.5-6.1-40.3-23.3-66.2-38.3-25.9-14.9-58.6-33.8-72.8-42L84 374.6l.2-106.4.3-106.4 22-12.7c12.1-7 44.5-25.7 72-41.6C206 91.6 237.3 73.6 248 67.3c10.7-6.2 20.1-11.1 20.8-10.8.7.2 9.7 5.3 20 11.3zm-76.4.1c-.5.5-5.4 3.6-10.9 6.8l-10 5.8-16 .5-15.9.5-7.1 12.2c-3.8 6.7-7.5 12.8-8.2 13.4-1.5 1.5-22.7 13.9-23.1 13.5-.2-.3 25.6-45.5 29.4-51.4L152 67h30.7c18.7 0 30.3.4 29.7.9zm187.4 26c8.4 14.5 15.1 26.5 15 26.7-.4.4-21.6-12-23.1-13.5-.7-.6-4.4-6.7-8.2-13.4l-7.1-12.2-15.9-.5-16-.5-10-5.8c-5.5-3.2-10.4-6.3-11-6.8-.6-.6 10.8-.8 30-.7l31 .3 15.3 26.4zm-340.3 161c-4.1 7.1-7.5 13.2-7.5 13.4 0 .3 3.4 6.4 7.5 13.5l7.6 12.9-.3 13.7-.3 13.7-13.7-23.8c-7.6-13.1-14.6-25.1-15.6-26.8l-1.8-2.9L47.8 247c6.8-11.8 13.8-24 15.6-27l3.1-5.5.3 13.7.3 13.7-7.6 13zm413.3-34.7c1.6 2.9 8.6 15 15.4 26.8l12.4 21.6-1.8 2.9c-1 1.7-8 13.7-15.6 26.8l-13.7 23.8-.3-13.7-.3-13.7 7.6-12.9c4.1-7.1 7.5-13.2 7.5-13.5 0-.2-3.4-6.3-7.5-13.4L469 242v-13.5c0-7.4.2-13.5.4-13.5s1.8 2.4 3.4 5.2zM133.5 422.8l11 6.3 7.9 13.5 7.8 13.4h30.9l10.9 6.2c6 3.5 11 6.6 11 7.1 0 .4-13.8.6-30.6.5l-30.7-.3-13.4-23c-15.3-26.2-17.8-30.9-16.6-30.4.5.2 5.8 3.2 11.8 6.7zm279.6-3.1c-1.1 2.1-8 14.1-15.4 26.8l-13.4 23-30.7.3c-16.8.1-30.6-.1-30.6-.5 0-.5 5-3.6 11-7.1l10.9-6.2h30.9l7.8-13.4 7.8-13.4 11.1-6.5c6-3.6 11.3-6.5 11.8-6.6.4-.1-.2 1.6-1.2 3.6z"/><path d="M238.8 195.7l-.3 43.8-43.2.3-43.3.2v57h87v88h58v-88h87v-57h-87v-88h-58l-.2 43.7z"/></svg>